<svg xmlns="http://www.w3.org/2000/svg" width="36" height="23" viewBox="0 0 36 23">
    <path fill="#303953" fill-rule="evenodd" d="M2.664 22.344c-.512 0-.928-.176-1.248-.528a1.735 1.735 0 0 1-.48-1.2c0-.512.064-.96.192-1.344l6.24-15.936c.384-.768.8-1.376 1.248-1.824.448-.448 1.088-.672 1.92-.672h4.992c.576 0 1.024.192 1.344.576.32.384.448.896.384 1.536l-2.592 16.32c-.128.896-.448 1.632-.96 2.208-.512.576-1.216.864-2.112.864H2.664zm18.336 0c-.448 0-.848-.176-1.2-.528-.352-.352-.528-.752-.528-1.2 0-.32.096-.768.288-1.344L25.8 3.336C26.44 1.672 27.496.84 28.968.84h4.992c.512 0 .928.192 1.248.576.32.384.448.896.384 1.536l-2.496 16.32c-.384 2.048-1.44 3.072-3.168 3.072H21z"/>
</svg>
